<svg width="40" height="48" viewBox="0 0 40 48" fill="none" xmlns="http://www.w3.org/2000/svg">
<path opacity="0.3" fill-rule="evenodd" clip-rule="evenodd" d="M20 47C23.3137 47 26 46.3284 26 45.5C26 44.6716 23.3137 44 20 44C16.6863 44 14 44.6716 14 45.5C14 46.3284 16.6863 47 20 47Z" fill="#252A32"/>
<path d="M8 12.2105C8 9.88511 9.88512 8 12.2105 8H27.7895C30.1149 8 32 9.88512 32 12.2105V35.4561C32 37.7816 30.1149 39.6667 27.7895 39.6667H24.6316L20.8264 44.8699C20.4128 45.4355 19.5724 45.4467 19.1439 44.8923L15.1053 39.6667H12.2105C9.88511 39.6667 8 37.7816 8 35.4561V12.2105Z" fill="#A96CF3"/>
<path fill-rule="evenodd" clip-rule="evenodd" d="M23.7782 16.5C24.157 16.5 24.3961 16.9306 24.2114 17.2803L21.0755 23.2198H24.7528C25.2106 23.2198 25.4242 23.8194 25.0802 24.1387L17.2925 31.3669C16.9133 31.7188 16.3371 31.3174 16.4933 30.8102L18.0024 25.9084H15.2468C14.8882 25.9084 14.648 25.5186 14.7929 25.1718L18.2854 16.8126C18.3648 16.6226 18.5428 16.5 18.7393 16.5H23.7782Z" fill="white"/>
<path fill-rule="evenodd" clip-rule="evenodd" d="M15.8417 38.1667L19.9669 43.5042L23.8702 38.1667H27.7895C29.2865 38.1667 30.5 36.9531 30.5 35.4561V12.2105C30.5 10.7135 29.2865 9.5 27.7895 9.5H12.2105C10.7135 9.5 9.5 10.7135 9.5 12.2105V35.4561C9.5 36.9531 10.7135 38.1667 12.2105 38.1667H15.8417ZM24.6316 39.6667H27.7895C30.1149 39.6667 32 37.7816 32 35.4561V12.2105C32 9.88512 30.1149 8 27.7895 8H12.2105C9.88512 8 8 9.88511 8 12.2105V35.4561C8 37.7816 9.88511 39.6667 12.2105 39.6667H15.1053L19.1439 44.8923C19.5724 45.4467 20.4128 45.4355 20.8264 44.8699L24.6316 39.6667Z" fill="#8229F0"/>
</svg>
