<svg width="40" height="48" viewBox="0 0 40 48" fill="none" xmlns="http://www.w3.org/2000/svg">
<path opacity="0.3" fill-rule="evenodd" clip-rule="evenodd" d="M20 47C23.3137 47 26 46.3284 26 45.5C26 44.6716 23.3137 44 20 44C16.6863 44 14 44.6716 14 45.5C14 46.3284 16.6863 47 20 47Z" fill="#252A32"/>
<path d="M8 12.2105C8 9.88511 9.88512 8 12.2105 8H27.7895C30.1149 8 32 9.88512 32 12.2105V35.4561C32 37.7816 30.1149 39.6667 27.7895 39.6667H24.6316L20.8264 44.8699C20.4128 45.4355 19.5724 45.4467 19.1439 44.8923L15.1053 39.6667H12.2105C9.88511 39.6667 8 37.7816 8 35.4561V12.2105Z" fill="#A96CF3"/>
<path d="M26.3389 17.8457C26.7342 17.9586 26.8811 18.4392 26.616 18.7519L22.0732 24.1109L25.5222 25.0959C26.0013 25.2327 26.0829 25.8734 25.6533 26.1248L16.6045 31.4187C16.1027 31.7123 15.535 31.1533 15.825 30.6512L18.4676 26.0752L15.9111 25.3451C15.5361 25.238 15.3792 24.795 15.6039 24.4777L17.4595 21.8572H13.8125C13.5018 21.8572 13.25 21.6173 13.25 21.3214C13.25 21.0256 13.5018 20.7857 13.8125 20.7857L21.2857 20.7857C21.5816 20.7857 21.8214 20.5459 21.8214 20.25C21.8214 19.9541 21.5816 19.7143 21.2857 19.7143H17.1875C16.8768 19.7143 16.625 19.4744 16.625 19.1786C16.625 18.8827 16.8768 18.6429 17.1875 18.6429H19.7356L21.0835 16.7394C21.2227 16.5429 21.4716 16.4556 21.7039 16.5219L26.3389 17.8457Z" fill="white"/>
<path fill-rule="evenodd" clip-rule="evenodd" d="M15.8417 38.1667L19.9669 43.5042L23.8702 38.1667H27.7895C29.2865 38.1667 30.5 36.9531 30.5 35.4561V12.2105C30.5 10.7135 29.2865 9.5 27.7895 9.5H12.2105C10.7135 9.5 9.5 10.7135 9.5 12.2105V35.4561C9.5 36.9531 10.7135 38.1667 12.2105 38.1667H15.8417ZM24.6316 39.6667H27.7895C30.1149 39.6667 32 37.7816 32 35.4561V12.2105C32 9.88512 30.1149 8 27.7895 8H12.2105C9.88512 8 8 9.88511 8 12.2105V35.4561C8 37.7816 9.88511 39.6667 12.2105 39.6667H15.1053L19.1439 44.8923C19.5724 45.4467 20.4128 45.4355 20.8264 44.8699L24.6316 39.6667Z" fill="#8229F0"/>
</svg>
