<svg version="1.1" xmlns="http://www.w3.org/2000/svg">
    <defs>
        <g id="plug-default">
            <path fill-rule="evenodd" clip-rule="evenodd" d="M12 3C7.02944 3 3 7.02944 3 12C3 16.9706 7.02944 21 12 21C16.9706 21 21 16.9706 21 12C21 7.02944 16.9706 3 12 3ZM1 12C1 5.92487 5.92487 1 12 1C18.0751 1 23 5.92487 23 12C23 18.0751 18.0751 23 12 23C5.92487 23 1 18.0751 1 12Z" fill="currentColor"/>
            <path fill-rule="evenodd" clip-rule="evenodd" d="M12 6C11.7239 6 11.5 6.22386 11.5 6.5C11.5 6.77614 11.7239 7 12 7C12.2761 7 12.5 6.77614 12.5 6.5C12.5 6.22386 12.2761 6 12 6ZM9.5 6.5C9.5 5.11929 10.6193 4 12 4C13.3807 4 14.5 5.11929 14.5 6.5C14.5 7.88071 13.3807 9 12 9C10.6193 9 9.5 7.88071 9.5 6.5Z" fill="currentColor"/>
            <path fill-rule="evenodd" clip-rule="evenodd" d="M12 17C11.7239 17 11.5 17.2239 11.5 17.5C11.5 17.7761 11.7239 18 12 18C12.2761 18 12.5 17.7761 12.5 17.5C12.5 17.2239 12.2761 17 12 17ZM9.5 17.5C9.5 16.1193 10.6193 15 12 15C13.3807 15 14.5 16.1193 14.5 17.5C14.5 18.8807 13.3807 20 12 20C10.6193 20 9.5 18.8807 9.5 17.5Z" fill="currentColor"/>
            <path fill-rule="evenodd" clip-rule="evenodd" d="M6.5 11.5C6.22386 11.5 6 11.7239 6 12C6 12.2761 6.22386 12.5 6.5 12.5C6.77614 12.5 7 12.2761 7 12C7 11.7239 6.77614 11.5 6.5 11.5ZM4 12C4 10.6193 5.11929 9.5 6.5 9.5C7.88071 9.5 9 10.6193 9 12C9 13.3807 7.88071 14.5 6.5 14.5C5.11929 14.5 4 13.3807 4 12Z" fill="currentColor"/>
            <path fill-rule="evenodd" clip-rule="evenodd" d="M17.5 11.5C17.2239 11.5 17 11.7239 17 12C17 12.2761 17.2239 12.5 17.5 12.5C17.7761 12.5 18 12.2761 18 12C18 11.7239 17.7761 11.5 17.5 11.5ZM15 12C15 10.6193 16.1193 9.5 17.5 9.5C18.8807 9.5 20 10.6193 20 12C20 13.3807 18.8807 14.5 17.5 14.5C16.1193 14.5 15 13.3807 15 12Z" fill="currentColor"/>
        </g>
    </defs>
</svg>